<svg width="83" height="34" viewBox="0 0 83 34" fill="none" xmlns="http://www.w3.org/2000/svg">
<path fill-rule="evenodd" clip-rule="evenodd" d="M83 22.0732V22.1298V22.243C82.8865 28.6952 77.6067 33.9022 71.1348 33.9022C64.606 33.9022 59.2695 28.6386 59.2695 22.0732C59.2695 15.5644 64.5493 10.3008 71.1348 10.3008C72.327 10.3008 73.5191 10.4706 74.5978 10.8102V6.05598C74.5978 2.6601 77.3228 0 80.6724 0H82.9432V22.0166C83 22.0166 83 22.0732 83 22.0732ZM71.1348 17.5454C68.58 17.5454 66.5363 19.5829 66.5363 22.1298C66.5363 24.6767 68.58 26.7142 71.1348 26.7142C73.6895 26.7142 75.7332 24.6767 75.7332 22.1298C75.7332 19.5829 73.6895 17.5454 71.1348 17.5454ZM61.2565 30.3365C59.0992 32.5438 56.0903 33.9022 52.7975 33.9022C46.2688 33.9022 40.9323 28.582 40.9323 22.0732C40.9323 15.5644 46.2688 10.3008 52.7975 10.3008C53.9897 10.3008 55.1819 10.4706 56.2606 10.8102V0H58.5315C61.9378 0 64.606 2.7167 64.606 6.05598V10.98C60.8023 13.2439 58.2476 17.3756 58.2476 22.0732C58.2476 25.2427 59.383 28.1292 61.2565 30.3365ZM52.7408 17.5454C50.186 17.5454 48.1423 19.5829 48.1423 22.1298C48.1423 24.6767 50.186 26.7142 52.7408 26.7142C55.2955 26.7142 57.3393 24.6767 57.3393 22.1298C57.3393 19.5829 55.2955 17.5454 52.7408 17.5454ZM42.8625 30.3365C40.7052 32.5438 37.6963 33.9022 34.4036 33.9022C27.8748 33.9022 22.5383 28.582 22.5383 22.0732C22.5383 15.5644 27.8748 10.3008 34.4036 10.3008C35.5958 10.3008 36.788 10.4706 37.8666 10.8102V6.05598C37.8666 2.6601 40.5917 0 43.9412 0H46.212V10.98C42.4083 13.2439 39.8536 17.3756 39.8536 22.0732C39.8536 25.2427 40.9891 28.1292 42.8625 30.3365ZM34.3468 17.5454C31.7921 17.5454 29.7483 19.5829 29.7483 22.1298C29.7483 24.6767 31.7921 26.7142 34.3468 26.7142C36.9015 26.7142 38.9453 24.6767 38.9453 22.1298C38.9453 19.5829 36.9015 17.5454 34.3468 17.5454ZM21.2326 15.904H21.5732L22.5951 16.5832V16.753C21.857 18.3943 21.4029 20.2055 21.4029 22.1298C21.4029 25.0729 22.368 27.733 24.0144 29.9403C23.6737 30.2799 22.5951 31.2421 19.4726 32.8268C15.6689 34.7512 10.1621 33.8456 7.72093 33.3362C5.27976 32.8268 0.624487 30.2233 0 29.3178C1.47606 25.5257 4.54173 24.9597 5.62038 24.9597C6.69904 25.0163 11.2975 26.2049 12.7736 26.2049C13.8523 26.2049 16.8044 25.2993 16.8044 22.809C16.6908 19.6961 14.3632 19.2433 13.8523 19.2433H10.2757C9.82148 19.2433 9.48085 18.9037 9.48085 18.4509V13.3571C9.48085 12.9043 9.82148 12.5647 10.2757 12.5647H12.2627C12.2627 12.5647 12.433 12.6213 13.9658 12.5647C15.5554 12.4516 16.3502 10.5272 16.407 9.96125C16.4637 9.39527 16.1231 7.13134 13.171 7.07475C10.1621 7.01815 10.1621 8.82928 6.69904 8.88588C3.23598 8.94248 1.53283 4.64103 1.53283 4.64103C4.5985 2.54691 8.96991 0.113199 15.0445 0.113199C21.119 0.113199 25.3769 3.73547 25.3769 8.26331C25.3769 12.7345 21.4596 15.9606 21.4596 15.9606L21.2326 15.904Z" fill="#9C9C9C"/>
</svg>
